<svg width="18" height="19" viewBox="0 0 18 19" fill="none" xmlns="http://www.w3.org/2000/svg">
<path fill-rule="evenodd" clip-rule="evenodd" d="M9.23902 1.98816L14.8493 4.88829C15.3657 5.15547 16.0009 4.9532 16.2681 4.43684C16.5353 3.92048 16.333 3.28522 15.8167 3.01804L10.2073 0.117901C9.69094 -0.149276 9.05571 0.053008 8.78851 0.569358C8.52181 1.08572 8.72361 1.72098 9.23997 1.98817L9.23902 1.98816Z" fill="#834B10"/>
<path fill-rule="evenodd" clip-rule="evenodd" d="M16.6859 8.20768L5.46815 2.40551C4.95179 2.1388 4.31603 2.34108 4.04933 2.85791C3.78215 3.37427 3.98443 4.01001 4.50128 4.27672L15.7186 10.0789C16.2354 10.3461 16.8707 10.1433 17.1379 9.62694C17.405 9.11012 17.2028 8.47485 16.6859 8.20768H16.6859Z" fill="#834B10"/>
<path fill-rule="evenodd" clip-rule="evenodd" d="M14.7527 11.9468L3.53495 6.14602C3.01859 5.87885 2.38286 6.08114 2.11615 6.59797C1.84897 7.1148 2.05127 7.75006 2.56809 8.01724L13.7854 13.817C14.3022 14.0842 14.937 13.8819 15.2042 13.3656C15.4714 12.8492 15.2691 12.2139 14.7527 11.9468L14.7527 11.9468Z" fill="#834B10"/>
<path fill-rule="evenodd" clip-rule="evenodd" d="M10.0149 14.2358L1.59542 9.88515C1.07907 9.61797 0.443797 9.82024 0.176619 10.3366C-0.0900844 10.853 0.111715 11.4882 0.628075 11.7554L9.04236 16.1061C9.55872 16.3733 10.194 16.171 10.4607 15.6546C10.7279 15.1383 10.5261 14.503 10.0092 14.2358H10.0149Z" fill="#834B10"/>
<path fill-rule="evenodd" clip-rule="evenodd" d="M6.2114 17.0118L1.5367 14.5916C1.02034 14.3244 0.385081 14.5267 0.117903 15.043C-0.149275 15.5594 0.0529998 16.1947 0.56936 16.4618L5.24406 18.8821C5.76088 19.1493 6.39617 18.947 6.66334 18.4302C6.93052 17.9133 6.72825 17.2781 6.2114 17.0109V17.0118Z" fill="#834B10"/>
</svg>
